<svg xmlns="http://www.w3.org/2000/svg" xmlns:xlink="http://www.w3.org/1999/xlink" viewBox="0 0 289.861 257.409">
  <defs>
    <style>
      .cls-1 {
        fill: #fff;
      }

      .cls-2 {
        fill: url(#linear-gradient);
      }
    </style>
    <linearGradient id="linear-gradient" x1="0.5" x2="0.5" y2="1" gradientUnits="objectBoundingBox">
      <stop offset="0" stop-color="#14c7b3"/>
      <stop offset="1" stop-color="#a3f5b9"/>
    </linearGradient>
  </defs>
  <g id="logo_tate_white" transform="translate(87.501 77.705)">
    <g id="グループ化_418" data-name="グループ化 418" transform="translate(-87.501 -77.705)">
      <g id="グループ化_416" data-name="グループ化 416" transform="translate(0 155.897)">
        <path id="パス_1815" data-name="パス 1815" class="cls-1" d="M6.314,116.176H23.49v-5.994H6.314V100.118H25.57V94.124H0v38.962H26.533v-5.994H6.314Z" transform="translate(0 -94.121)"/>
        <path id="パス_1816" data-name="パス 1816" class="cls-1" d="M44.037,122.022l-11.71-27.9H23.7v38.962H30.02V104.211l11.859,28.875h4.212L57.95,104.211v28.875h6.316V94.124H55.643Z" transform="translate(15.558 -94.121)"/>
        <path id="パス_1817" data-name="パス 1817" class="cls-1" d="M102.921,114.635a11.127,11.127,0,0,0,3.1-2.425,10.485,10.485,0,0,0,1.945-3.222,10.355,10.355,0,0,0,.679-3.707,14.189,14.189,0,0,0-.555-3.81,9.174,9.174,0,0,0-2.024-3.644,10.812,10.812,0,0,0-3.921-2.658,16.2,16.2,0,0,0-6.206-1.034H82.063V133.1h6.314V116.442h4.767l9.607,16.641h7.821L99.766,115.721A10.575,10.575,0,0,0,102.921,114.635ZM88.377,99.8h6.128a17.71,17.71,0,0,1,2.864.233,7.387,7.387,0,0,1,2.42.812,4.214,4.214,0,0,1,1.615,1.618,6.807,6.807,0,0,1,0,5.645,4.217,4.217,0,0,1-1.615,1.618,7.454,7.454,0,0,1-2.42.812,17.888,17.888,0,0,1-2.865.234H88.375Z" transform="translate(53.861 -94.118)"/>
        <path id="パス_1818" data-name="パス 1818" class="cls-1" d="M126.653,94.124h-5.424l-17.17,38.962h7.288l3.735-9.337h17.173l3.786,9.337h7.288l-16.52-38.593Zm3.253,23.951H117.389l6.306-15.295Z" transform="translate(68.297 -94.121)"/>
        <path id="パス_1819" data-name="パス 1819" class="cls-1" d="M140.208,94.124h-6.314v38.962h22.548v-5.994H140.208Z" transform="translate(87.879 -94.121)"/>
        <path id="パス_1820" data-name="パス 1820" class="cls-1" d="M186.917,105.377a19.463,19.463,0,0,0-2.393-4.182,16.057,16.057,0,0,0-3.823-3.631,19.344,19.344,0,0,0-5.395-2.506,25.13,25.13,0,0,0-7.187-.933H154.345v38.962h12.919a23.905,23.905,0,0,0,9.163-1.645,20.1,20.1,0,0,0,6.678-4.373,18.372,18.372,0,0,0,4.08-6.229,19.675,19.675,0,0,0,1.375-7.233,22.5,22.5,0,0,0-.384-3.947,21.182,21.182,0,0,0-1.259-4.283Zm-26.256-5.257h7.086a15.475,15.475,0,0,1,7.19,1.453,12.607,12.607,0,0,1,4.306,3.535,12.153,12.153,0,0,1,2.112,4.4,17.84,17.84,0,0,1,.571,4.1,13.479,13.479,0,0,1-1.219,5.9,12.131,12.131,0,0,1-3.313,4.2,14.411,14.411,0,0,1-4.894,2.534,20.616,20.616,0,0,1-5.988.855h-5.858Z" transform="translate(101.301 -94.122)"/>
        <path id="パス_1821" data-name="パス 1821" class="cls-1" d="M64.112,116.176H81.29v-5.994H64.112V100.118H83.37V94.124H57.8v38.962H84.331v-5.994H64.112Z" transform="translate(37.936 -94.121)"/>
      </g>
      <g id="グループ化_417" data-name="グループ化 417" transform="translate(68.619 216.509)">
        <path id="パス_1822" data-name="パス 1822" class="cls-1" d="M65.435,134.991a10.824,10.824,0,0,0-3.922-2.658,16.2,16.2,0,0,0-6.206-1.034H41.428v38.962h6.314V153.618h7.566a16.171,16.171,0,0,0,6.206-1.034,10.824,10.824,0,0,0,3.922-2.658,9.214,9.214,0,0,0,2.024-3.644,13.391,13.391,0,0,0,0-7.632,9.151,9.151,0,0,0-2.026-3.659Zm-17.693,1.988H53.87a17.714,17.714,0,0,1,2.863.233,7.4,7.4,0,0,1,2.422.812,4.205,4.205,0,0,1,1.615,1.618,6.8,6.8,0,0,1,0,5.645,4.2,4.2,0,0,1-1.613,1.618,7.465,7.465,0,0,1-2.422.812,17.907,17.907,0,0,1-2.865.234H47.742Z" transform="translate(-41.428 -130.339)"/>
        <path id="パス_1823" data-name="パス 1823" class="cls-1" d="M98.287,136.6a19.176,19.176,0,0,0-6.412-4.321,22.135,22.135,0,0,0-16.358,0A19.156,19.156,0,0,0,69.1,136.6a20.028,20.028,0,0,0-4.179,6.486,22.294,22.294,0,0,0,0,16.133,20.012,20.012,0,0,0,4.179,6.485,19.2,19.2,0,0,0,6.413,4.323,22.126,22.126,0,0,0,16.358,0,19.214,19.214,0,0,0,6.412-4.323,19.991,19.991,0,0,0,4.181-6.485,22.292,22.292,0,0,0,0-16.133A20.013,20.013,0,0,0,98.287,136.6ZM83.7,165.6a13.139,13.139,0,0,1-9.91-4.234,13.7,13.7,0,0,1-2.761-4.578,16.745,16.745,0,0,1,0-11.263,13.451,13.451,0,0,1,25.339,0,16.719,16.719,0,0,1,0,11.263,13.7,13.7,0,0,1-2.758,4.578A13.14,13.14,0,0,1,83.7,165.6Z" transform="translate(-26.997 -130.716)"/>
        <path id="パス_1824" data-name="パス 1824" class="cls-1" d="M114.855,150.342a19.838,19.838,0,0,0-4.62-1.843,41.039,41.039,0,0,1-4.417-1.42,10.238,10.238,0,0,1-3.251-1.963,4.161,4.161,0,0,1-1.2-3.241,5.263,5.263,0,0,1,.313-1.675,4.545,4.545,0,0,1,1.067-1.671,5.8,5.8,0,0,1,2.059-1.3,9.131,9.131,0,0,1,3.326-.52,8.056,8.056,0,0,1,3.728.841,6.35,6.35,0,0,1,2.484,2.193l.383.595,5.1-4.638-.359-.439a10.824,10.824,0,0,0-5.251-3.662,21.137,21.137,0,0,0-6.094-.878,15.472,15.472,0,0,0-6.077,1.087,13.148,13.148,0,0,0-4.159,2.715,10.647,10.647,0,0,0-3.162,7.357,11.314,11.314,0,0,0,1.481,6.162,11.594,11.594,0,0,0,3.627,3.627,18.905,18.905,0,0,0,4.626,2.064c1.61.479,3.1.977,4.442,1.491a11.406,11.406,0,0,1,3.27,1.822,3.478,3.478,0,0,1,1.171,2.874,4.677,4.677,0,0,1-.61,2.418,6,6,0,0,1-1.628,1.8,7.381,7.381,0,0,1-2.244,1.108,9.189,9.189,0,0,1-6.65-.557,7.866,7.866,0,0,1-3.3-2.857l-.376-.565-5.135,4.427.32.444a11.967,11.967,0,0,0,5.441,4.156,19.323,19.323,0,0,0,7.1,1.325,16.628,16.628,0,0,0,5.309-.828,13.025,13.025,0,0,0,4.358-2.4,11.539,11.539,0,0,0,2.957-3.879,11.941,11.941,0,0,0,1.1-5.164,9.736,9.736,0,0,0-1.491-5.709A11.1,11.1,0,0,0,114.855,150.342Z" transform="translate(-7.313 -130.716)"/>
        <path id="パス_1825" data-name="パス 1825" class="cls-1" d="M115.076,131.3v5.994h12.162v32.966h6.316V137.29h12.162V131.3Z" transform="translate(6.91 -130.336)"/>
      </g>
      <path id="パス_1826" data-name="パス 1826" class="cls-2" d="M109.008,0a63.384,63.384,0,1,0,63.384,63.384A63.384,63.384,0,0,0,109.008,0ZM63.743,95.665l37.907-37.908-4.707-4.707L60.109,89.882A55.606,55.606,0,1,1,164.416,58.835l-59.959,59.959a55.244,55.244,0,0,1-21.254-6.15L134.9,60.953l-4.707-4.707-52.847,52.84a55.9,55.9,0,0,1-13.6-13.421ZM113.9,118.759l50.488-50.488A55.6,55.6,0,0,1,113.9,118.759Z" transform="translate(29.944 0)"/>
    </g>
  </g>
</svg>
